<svg fill="none" height="105" width="100" xmlns="http://www.w3.org/2000/svg"><mask id="a" fill="#000" height="95" maskUnits="userSpaceOnUse" width="67" x="17.379" y="0"><path d="M17.38 0h67v95h-67z" fill="#fff"/><path clip-rule="evenodd" d="M51.9 84.802c3.753-4.623 7.505-9.622 11-14.801 4.58-6.79 8.361-13.37 11.065-19.505 2.94-6.674 4.492-12.58 4.492-17.457C78.457 17.534 65.922 5 50.417 5 34.915 5 22.38 17.534 22.38 33.039c0 4.876 1.552 10.784 4.492 17.457 2.704 6.136 6.484 12.715 11.065 19.505 3.495 5.18 7.247 10.178 11 14.801.508.628 1.003 1.23 1.482 1.807.479-.576.973-1.18 1.483-1.807zm-1.482-37.744c7.735 0 14.02-6.284 14.02-14.02 0-7.735-6.285-14.019-14.02-14.019-7.736 0-14.02 6.284-14.02 14.02 0 7.735 6.284 14.02 14.02 14.02z" fill-rule="evenodd"/></mask><ellipse cx="49.535" cy="86.424" fill="#d4f395" rx="49.535" ry="18.576"/><path d="m62.9 70 4.145 2.797zm-11 14.802-3.882-3.15zm22.065-34.306-4.576-2.016zm-47.094 0-4.575 2.016zm11.065 19.505-4.145 2.796zm11 14.801 3.881-3.15zm1.482 1.807-3.847 3.194 3.847 4.634 3.847-4.634zm8.337-19.405c-3.403 5.044-7.066 9.925-10.737 14.448l7.765 6.301c3.833-4.723 7.675-9.84 11.262-15.156zM69.39 48.48c-2.55 5.789-6.167 12.103-10.634 18.724l8.29 5.593c4.695-6.958 8.639-13.802 11.495-20.285zm4.068-15.441c0 3.905-1.268 9.088-4.068 15.441l9.151 4.032c3.082-6.994 4.917-13.625 4.917-19.473zM50.417 10c12.744 0 23.04 10.296 23.04 23.039h10C83.457 14.773 68.683 0 50.417 0zM27.38 33.039C27.38 20.296 37.675 10 50.418 10V0C32.153 0 17.379 14.773 17.379 33.039zm4.068 15.441c-2.8-6.353-4.068-11.536-4.068-15.441h-10c0 5.848 1.835 12.48 4.917 19.473zM42.08 67.204c-4.467-6.62-8.084-12.935-10.634-18.724l-9.151 4.032c2.856 6.483 6.8 13.327 11.495 20.285zm10.737 14.448c-3.671-4.523-7.334-9.404-10.737-14.448l-8.29 5.593c3.587 5.316 7.429 10.433 11.262 15.156zm1.447 1.763c-.467-.562-.95-1.15-1.447-1.763l-7.765 6.301c.52.642 1.027 1.259 1.518 1.85zm-6.247-1.763c-.497.613-.98 1.201-1.447 1.763l7.694 6.388c.49-.591.997-1.208 1.518-1.85zm11.42-48.613c0 4.974-4.046 9.02-9.02 9.02v10c10.497 0 19.02-8.523 19.02-19.02zm-9.02-9.02c4.974 0 9.02 4.046 9.02 9.02h10c0-10.497-8.523-19.02-19.02-19.02zm-9.02 9.02c0-4.974 4.046-9.02 9.02-9.02v-10c-10.497 0-19.02 8.523-19.02 19.02zm9.02 9.02c-4.974 0-9.02-4.046-9.02-9.02h-10c0 10.497 8.523 19.02 19.02 19.02z" fill="#006142" mask="url(#a)"/></svg>